<?xml version="1.0" encoding="UTF-8" standalone="no"?>
<!-- Created with Inkscape (http://www.inkscape.org/) -->

<svg
   width="538.31696"
   height="1033.4344"
   viewBox="0 0 142.42969 273.42954"
   version="1.1"
   id="svg1"
   xmlns="http://www.w3.org/2000/svg"
   xmlns:svg="http://www.w3.org/2000/svg">
  <defs
     id="defs1" />
  <g
     id="g67"
     style="display:none"
     transform="translate(-71.527295,-9.0181923)">
    <path
       d="m 0,0 v 296.695 -10e-4 z"
       style="fill:#000000;fill-opacity:1;stroke:#000000;stroke-width:0.264583;stroke-dasharray:none;stroke-opacity:1"
       id="path51" />
    <path
       d="m 17.8577,0 v 296.695 -10e-4 z"
       style="fill:#000000;fill-opacity:1;stroke:#000000;stroke-width:0.264583;stroke-dasharray:none;stroke-opacity:1"
       id="path52" />
    <path
       d="m 35.7154,0 v 296.695 -10e-4 z"
       style="fill:#000000;fill-opacity:1;stroke:#000000;stroke-width:0.264583;stroke-dasharray:none;stroke-opacity:1"
       id="path53" />
    <path
       d="m 53.5731,0 v 296.695 -10e-4 z"
       style="fill:#000000;fill-opacity:1;stroke:#000000;stroke-width:0.264583;stroke-dasharray:none;stroke-opacity:1"
       id="path54" />
    <path
       d="m 71.4308,0 v 296.695 -10e-4 z"
       style="fill:#000000;fill-opacity:1;stroke:#000000;stroke-width:0.264583;stroke-dasharray:none;stroke-opacity:1"
       id="path55" />
    <path
       d="m 89.2886,0 v 296.695 -10e-4 z"
       style="fill:#000000;fill-opacity:1;stroke:#000000;stroke-width:0.264583;stroke-dasharray:none;stroke-opacity:1"
       id="path56" />
    <path
       d="m 107.146,0 v 296.695 -10e-4 z"
       style="fill:#000000;fill-opacity:1;stroke:#000000;stroke-width:0.264583;stroke-dasharray:none;stroke-opacity:1"
       id="path57" />
    <path
       d="m 125.004,0 v 296.695 -10e-4 z"
       style="fill:#000000;fill-opacity:1;stroke:#000000;stroke-width:0.264583;stroke-dasharray:none;stroke-opacity:1"
       id="path58" />
    <path
       d="m 142.862,0 v 296.695 -10e-4 z"
       style="fill:#000000;fill-opacity:1;stroke:#000000;stroke-width:0.264583;stroke-dasharray:none;stroke-opacity:1"
       id="path59" />
    <path
       d="m 160.719,0 v 296.695 -10e-4 z"
       style="fill:#000000;fill-opacity:1;stroke:#000000;stroke-width:0.264583;stroke-dasharray:none;stroke-opacity:1"
       id="path60" />
    <path
       d="m 178.577,0 v 296.695 -10e-4 z"
       style="fill:#000000;fill-opacity:1;stroke:#000000;stroke-width:0.264583;stroke-dasharray:none;stroke-opacity:1"
       id="path61" />
    <path
       d="m 196.435,0 v 296.695 -10e-4 z"
       style="fill:#000000;fill-opacity:1;stroke:#000000;stroke-width:0.264583;stroke-dasharray:none;stroke-opacity:1"
       id="path62" />
    <path
       d="m 214.293,0 v 296.695 -10e-4 z"
       style="fill:#000000;fill-opacity:1;stroke:#000000;stroke-width:0.264583;stroke-dasharray:none;stroke-opacity:1"
       id="path63" />
    <path
       d="m 232.15,0 v 296.695 -10e-4 z"
       style="fill:#000000;fill-opacity:1;stroke:#000000;stroke-width:0.264583;stroke-dasharray:none;stroke-opacity:1"
       id="path64" />
    <path
       d="m 250.008,0 v 296.695 -10e-4 z"
       style="fill:#000000;fill-opacity:1;stroke:#000000;stroke-width:0.264583;stroke-dasharray:none;stroke-opacity:1"
       id="path65" />
    <path
       d="m 267.866,0 v 296.695 -10e-4 z"
       style="fill:#000000;fill-opacity:1;stroke:#000000;stroke-width:0.264583;stroke-dasharray:none;stroke-opacity:1"
       id="path66" />
    <path
       d="m 285.723,0 v 296.695 -10e-4 z"
       style="fill:#000000;fill-opacity:1;stroke:#000000;stroke-width:0.264583;stroke-dasharray:none;stroke-opacity:1"
       id="path67" />
    <path
       style="display:none;fill:#000000;fill-opacity:1;stroke:#000000;stroke-width:0.264583;stroke-dasharray:none;stroke-opacity:1"
       d="M 285.72336,0 V 296.69512 Z"
       id="path33" />
  </g>
  <g
     id="g84"
     transform="matrix(0,1.0383645,-0.96147918,0,214.19581,-8.555848)"
     style="display:none">
    <path
       d="m 0,0 v 296.695 -10e-4 z"
       style="fill:#000000;fill-opacity:1;stroke:#000000;stroke-width:0.264583;stroke-dasharray:none;stroke-opacity:1"
       id="path68" />
    <path
       d="m 17.8577,0 v 296.695 -10e-4 z"
       style="fill:#000000;fill-opacity:1;stroke:#000000;stroke-width:0.264583;stroke-dasharray:none;stroke-opacity:1"
       id="path69" />
    <path
       d="m 35.7154,0 v 296.695 -10e-4 z"
       style="fill:#000000;fill-opacity:1;stroke:#000000;stroke-width:0.264583;stroke-dasharray:none;stroke-opacity:1"
       id="path70" />
    <path
       d="m 53.5731,0 v 296.695 -10e-4 z"
       style="fill:#000000;fill-opacity:1;stroke:#000000;stroke-width:0.264583;stroke-dasharray:none;stroke-opacity:1"
       id="path71" />
    <path
       d="m 71.4308,0 v 296.695 -10e-4 z"
       style="fill:#000000;fill-opacity:1;stroke:#000000;stroke-width:0.264583;stroke-dasharray:none;stroke-opacity:1"
       id="path72" />
    <path
       d="m 89.2886,0 v 296.695 -10e-4 z"
       style="fill:#000000;fill-opacity:1;stroke:#000000;stroke-width:0.264583;stroke-dasharray:none;stroke-opacity:1"
       id="path73" />
    <path
       d="m 107.146,0 v 296.695 -10e-4 z"
       style="fill:#000000;fill-opacity:1;stroke:#000000;stroke-width:0.264583;stroke-dasharray:none;stroke-opacity:1"
       id="path74" />
    <path
       d="m 125.004,0 v 296.695 -10e-4 z"
       style="fill:#000000;fill-opacity:1;stroke:#000000;stroke-width:0.264583;stroke-dasharray:none;stroke-opacity:1"
       id="path75" />
    <path
       d="m 142.862,0 v 296.695 -10e-4 z"
       style="fill:#000000;fill-opacity:1;stroke:#000000;stroke-width:0.264583;stroke-dasharray:none;stroke-opacity:1"
       id="path76" />
    <path
       d="m 160.719,0 v 296.695 -10e-4 z"
       style="fill:#000000;fill-opacity:1;stroke:#000000;stroke-width:0.264583;stroke-dasharray:none;stroke-opacity:1"
       id="path77" />
    <path
       d="m 178.577,0 v 296.695 -10e-4 z"
       style="fill:#000000;fill-opacity:1;stroke:#000000;stroke-width:0.264583;stroke-dasharray:none;stroke-opacity:1"
       id="path78" />
    <path
       d="m 196.435,0 v 296.695 -10e-4 z"
       style="fill:#000000;fill-opacity:1;stroke:#000000;stroke-width:0.264583;stroke-dasharray:none;stroke-opacity:1"
       id="path79" />
    <path
       d="m 214.293,0 v 296.695 -10e-4 z"
       style="fill:#000000;fill-opacity:1;stroke:#000000;stroke-width:0.264583;stroke-dasharray:none;stroke-opacity:1"
       id="path80" />
    <path
       d="m 232.15,0 v 296.695 -10e-4 z"
       style="fill:#000000;fill-opacity:1;stroke:#000000;stroke-width:0.264583;stroke-dasharray:none;stroke-opacity:1"
       id="path81" />
    <path
       d="m 250.008,0 v 296.695 -10e-4 z"
       style="fill:#000000;fill-opacity:1;stroke:#000000;stroke-width:0.264583;stroke-dasharray:none;stroke-opacity:1"
       id="path82" />
    <path
       d="m 267.866,0 v 296.695 -10e-4 z"
       style="fill:#000000;fill-opacity:1;stroke:#000000;stroke-width:0.264583;stroke-dasharray:none;stroke-opacity:1"
       id="path83" />
    <path
       d="m 285.723,0 v 296.695 -10e-4 z"
       style="fill:#000000;fill-opacity:1;stroke:#000000;stroke-width:0.264583;stroke-dasharray:none;stroke-opacity:1"
       id="path84" />
    <path
       style="display:none;fill:#000000;fill-opacity:1;stroke:#000000;stroke-width:0.264583;stroke-dasharray:none;stroke-opacity:1"
       d="M 0,0 V 296.69512 Z"
       id="path32"
       transform="matrix(0,-1.0400641,0.96305297,0,-0.445262,297.17036)" />
  </g>
  <ellipse
     style="fill:#ff2a2a;fill-opacity:1;stroke:#ffffff;stroke-width:0;stroke-dasharray:none;stroke-opacity:1"
     id="path85"
     cy="33.035805"
     cx="72.186432"
     rx="31.912556"
     ry="33.035805" />
  <path
     style="fill:#800000;fill-opacity:1;stroke:#ffffff;stroke-width:0;stroke-dasharray:none;stroke-opacity:1"
     d="m 27.783129,74.489218 c 6.025056,-5.790662 11.724306,-8.990696 16.853836,-9.143086 5.12953,-0.15239 9.68884,2.742825 11.80579,6.552546 2.11695,3.80972 1.79129,8.53348 -1.95409,15.08621 -3.74538,6.55274 -10.91001,14.933612 -9.44442,17.524222 1.46558,2.59061 11.5614,-0.60943 22.3089,-7.162122 10.74749,-6.55269 22.14578,-16.457366 31.99773,-19.733728 9.851965,-3.276361 18.156405,0.07598 22.716005,4.266684 4.5596,4.190704 5.37375,9.219214 1.79122,14.933804 -3.58253,5.714582 -11.56133,12.114532 -24.018765,16.305222 -12.45745,4.1907 -29.39238,6.17167 -39.24417,8.91465 -9.85178,2.74298 -12.62,6.24779 -13.84128,9.6003 -1.22129,3.35252 -0.89562,6.55256 2.44264,9.6003 3.33827,3.04775 9.68887,5.94302 17.83092,4.34291 8.14206,-1.60011 18.07504,-7.69542 28.17117,-10.81933 10.096115,-3.12391 20.354785,-3.27629 28.333965,-0.4571 7.97916,2.8192 13.67842,8.60974 16.5281,14.85763 2.84969,6.24788 2.84969,12.95272 1.46552,18.97201 -1.38415,6.01929 -4.15231,11.35258 -9.03758,18.74344 -4.88527,7.39085 -11.88707,16.8384 -26.78715,29.63906 -14.900065,12.80066 -37.697095,28.95324 -59.599155,40.00127 -21.902076,11.04803 -42.9078973,16.99096 -45.75742925,16.9147 -2.84953105,-0.0763 12.45703825,-6.17156 27.51980925,-17.2197 15.06276,-11.04813 29.88055,-27.04802 39.97676,-38.40097 10.09622,-11.35296 15.4697,-18.05767 16.77244,-26.28667 1.30274,-8.229 -1.46542,-17.98129 -12.15219,-16.65508 -10.68679,1.32621 -29.29091,13.73077 -42.6358,11.26481 C 16.48102,183.66525 8.3969607,166.32908 5.8120867,149.00205 3.2272137,131.67501 6.1418347,114.35918 10.774655,101.51005 15.407486,88.660928 21.758076,80.27988 27.783129,74.489218 Z"
     id="path91" />
</svg>
